<?xml version="1.0" encoding="utf-8"?>
<!-- Generator: Adobe Illustrator 27.0.0, SVG Export Plug-In . SVG Version: 6.00 Build 0)  -->
<svg version="1.1" id="Camada_2_00000120538779836111959140000016499418472055295412_"
	 xmlns="http://www.w3.org/2000/svg" xmlns:xlink="http://www.w3.org/1999/xlink" x="0px" y="0px" viewBox="0 0 121.7 121.7"
	 style="enable-background:new 0 0 121.7 121.7;" xml:space="preserve">
<style type="text/css">
	.st0{fill:#EC1837;}
	.st1{fill:#0F1013;}
	.st2{fill:#F1E5D7;}
</style>
<g id="Camada_1-2">
	<g>
		<circle class="st0" cx="60.8" cy="60.8" r="51.6"/>
		<g>
			<polygon class="st1" points="41.7,45.4 32.7,54.3 32.7,65.4 23.6,56.2 32.7,47.1 32.7,39.6 			"/>
			<path class="st2" d="M76.6,46.1H45.1l-9.5,9.5v21.7l4.9,4.9l20.3,0l20.3,0l4.9-4.9V55.5L76.6,46.1z M56.8,71.7l-3.3,3.3L49.7,71
				l-3.9,3.9l-3.3-3.3l3.9-3.9l-3.9-3.9l3.3-3.3l3.9,3.9l3.9-3.9l3.3,3.3l-3.9,3.9L56.8,71.7z M79.2,70h-5.6v5.6H69V70h-5.6v-4.6H69
				v-5.6h4.6v5.6h5.6C79.2,65.4,79.2,70,79.2,70z"/>
			<polygon class="st1" points="88.9,65.4 88.9,54.3 80,45.4 88.9,39.6 88.9,47.1 98.1,56.2 			"/>
			<polygon class="st0" points="79.2,65.4 79.2,70 73.6,70 73.6,75.6 69,75.6 69,70 63.5,70 63.5,65.4 69,65.4 69,59.8 73.6,59.8 
				73.6,65.4 			"/>
			<polygon class="st0" points="52.9,67.7 56.8,71.7 53.6,74.9 49.7,71 45.7,74.9 42.5,71.7 46.4,67.7 42.5,63.8 45.7,60.5 
				49.7,64.5 53.6,60.5 56.8,63.8 			"/>
		</g>
	</g>
</g>
</svg>
